<svg width="129" height="39" viewBox="0 0 129 39" fill="none" xmlns="http://www.w3.org/2000/svg">
<path d="M13.2289 8.21022V16.1321C12.1845 14.9133 10.6337 14.1757 8.51325 14.1757C4.36728 14.1757 0.949219 17.864 0.949219 22.6428C0.949219 27.4216 4.36728 31.1099 8.51325 31.1099C10.6337 31.1099 12.1845 30.3722 13.2289 29.1535V30.6609H17.9762V8.21022H13.2289ZM9.46271 26.5556C7.27895 26.5556 5.69652 25.0482 5.69652 22.6428C5.69652 20.2374 7.27895 18.73 9.46271 18.73C11.6465 18.73 13.2289 20.2374 13.2289 22.6428C13.2289 25.0482 11.6465 26.5556 9.46271 26.5556ZM22.5668 13.2135C24.1176 13.2135 25.4152 11.8985 25.4152 10.327C25.4152 8.75545 24.1176 7.44048 22.5668 7.44048C21.016 7.44048 19.7184 8.75545 19.7184 10.327C19.7184 11.8985 21.016 13.2135 22.5668 13.2135ZM20.1931 30.6609H24.9404V14.6247H20.1931V30.6609ZM38.7634 14.6247V16.2604C37.719 14.9454 36.1999 14.1757 34.1427 14.1757C29.6486 14.1757 26.3572 17.8961 26.3572 22.3221C26.3572 26.748 29.6486 30.4684 34.1427 30.4684C36.1999 30.4684 37.719 29.6987 38.7634 28.3837V29.8591C38.7634 32.1362 37.4025 33.2908 35.1871 33.2908C33.0983 33.2908 32.1805 32.3928 31.5792 31.2703L27.5282 33.6436C28.984 36.2735 31.7374 37.5244 35.0289 37.5244C39.2382 37.5244 43.3841 35.2472 43.3841 29.8591V14.6247H38.7634ZM34.934 26.0425C32.6869 26.0425 31.1045 24.5351 31.1045 22.3221C31.1045 20.1091 32.6869 18.6017 34.934 18.6017C37.181 18.6017 38.7634 20.1091 38.7634 22.3221C38.7634 24.5351 37.181 26.0425 34.934 26.0425ZM47.9747 13.2135C49.5255 13.2135 50.8231 11.8985 50.8231 10.327C50.8231 8.75545 49.5255 7.44048 47.9747 7.44048C46.4239 7.44048 45.1263 8.75545 45.1263 10.327C45.1263 11.8985 46.4239 13.2135 47.9747 13.2135ZM45.6011 30.6609H50.3484V14.6247H45.6011V30.6609ZM61.8294 19.2431V14.6247H58.5696V10.1346L53.8223 11.5778V14.6247H51.2904V19.2431H53.8223V24.9199C53.8223 29.4101 55.6262 31.3023 61.8294 30.6609V26.299C59.7406 26.4273 58.5696 26.299 58.5696 24.9199V19.2431H61.8294ZM74.4307 14.6247V16.1321C73.3863 14.9133 71.8356 14.1757 69.7151 14.1757C65.5691 14.1757 62.1511 17.864 62.1511 22.6428C62.1511 27.4216 65.5691 31.1099 69.7151 31.1099C71.8356 31.1099 73.3863 30.3722 74.4307 29.1535V30.6609H79.1781V14.6247H74.4307ZM70.6646 26.5556C68.4808 26.5556 66.8984 25.0482 66.8984 22.6428C66.8984 20.2374 68.4808 18.73 70.6646 18.73C72.8483 18.73 74.4307 20.2374 74.4307 22.6428C74.4307 25.0482 72.8483 26.5556 70.6646 26.5556ZM81.395 30.6609H86.1423V7.24805H81.395V30.6609Z" fill="white"/>
<path d="M98.4003 8.36449C98.4003 9.14208 98.062 9.57691 97.3856 9.669H95.2048C93.4178 9.669 92.5243 10.7638 92.5243 12.9533C92.5243 13.1783 92.5395 13.5109 92.5697 13.9509C92.6101 14.3908 92.6304 14.7233 92.6304 14.9484H95.7652C96.371 15.0201 96.6738 15.4396 96.6738 16.2069C96.6738 16.9026 96.371 17.2505 95.7652 17.2505H92.6304V29.5589C92.6304 30.2854 92.176 30.6485 91.2673 30.6485C90.3688 30.6485 89.9195 30.2854 89.9195 29.5589V17.2505H88.5716C88.0668 17.2505 87.8145 16.918 87.8145 16.2529C87.8145 15.3833 88.0668 14.9484 88.5716 14.9484H89.9195C89.9195 14.7437 89.9144 14.4317 89.9043 14.0122C89.8943 13.5927 89.8892 13.2807 89.8892 13.0761C89.8892 11.3572 90.1466 10.0424 90.6616 9.13185C91.4187 7.80176 92.7565 7.13672 94.6747 7.13672H97.4008C98.0671 7.2288 98.4003 7.63806 98.4003 8.36449ZM101.808 29.252C101.808 29.9477 101.374 30.2955 100.505 30.2955C99.5564 30.2955 99.0818 29.9477 99.0818 29.252V10.4363C99.0818 9.88386 99.3141 9.28531 99.7784 8.64073C100.263 7.94501 100.768 7.59714 101.293 7.59714C101.636 7.59714 101.808 7.8785 101.808 8.44123V29.252ZM109.017 8.91699C109.017 9.38763 108.855 9.79177 108.532 10.1294C108.209 10.467 107.815 10.6359 107.351 10.6359C106.886 10.6359 106.492 10.467 106.169 10.1294C105.856 9.79177 105.7 9.38763 105.7 8.91699C105.7 8.44634 105.856 8.04732 106.169 7.71991C106.492 7.38228 106.886 7.21345 107.351 7.21345C107.815 7.21345 108.209 7.38228 108.532 7.71991C108.855 8.04732 109.017 8.44634 109.017 8.91699ZM108.789 29.5589C108.739 30.0398 108.249 30.2802 107.32 30.2802C106.482 30.2802 106.063 30.0398 106.063 29.5589V14.4881C106.063 13.9048 106.508 13.6132 107.396 13.6132C108.325 13.6132 108.789 13.9048 108.789 14.4881V29.5589ZM122.116 14.1964C122.571 13.5621 123.232 13.2449 124.1 13.2449C125.019 13.2449 125.479 13.4751 125.479 13.9355C125.479 14.0276 125.443 14.1146 125.372 14.1964L120.208 21.3943L125.585 29.1599C125.635 29.2111 125.66 29.2724 125.66 29.344C125.66 29.6203 125.458 29.8505 125.054 30.0347C124.731 30.1881 124.413 30.2648 124.1 30.2648C123.333 30.2648 122.712 29.8965 122.238 29.1599L118.664 23.5888L114.983 29.2673C114.549 29.9426 113.853 30.2802 112.894 30.2802C112.045 30.2802 111.621 30.0295 111.621 29.5282C111.621 29.4463 111.642 29.3594 111.682 29.2673L117.013 21.5477L112 14.3805C111.97 14.3396 111.955 14.2833 111.955 14.2117C111.955 13.9252 112.151 13.6951 112.545 13.5211C112.858 13.3778 113.176 13.3062 113.499 13.3062C114.267 13.3062 114.903 13.6643 115.407 14.3805L118.664 19.0308L122.116 14.1964Z" fill="#663DE8"/>
</svg>
